<?xml version="1.0" encoding="UTF-8" standalone="no"?>
<!DOCTYPE svg PUBLIC "-//W3C//DTD SVG 1.1//EN" "http://www.w3.org/Graphics/SVG/1.1/DTD/svg11.dtd">
<svg width="100%" height="100%" viewBox="0 0 2953 1418" version="1.1" xmlns="http://www.w3.org/2000/svg" xmlns:xlink="http://www.w3.org/1999/xlink" xml:space="preserve" xmlns:serif="http://www.serif.com/" style="fill-rule:evenodd;clip-rule:evenodd;stroke-linecap:round;stroke-linejoin:round;stroke-miterlimit:1.5;">
    <rect x="-2.699" y="2.565" width="2950.22" height="1412.3" style="fill:white;"/>
    <g transform="matrix(1,0,0,1,-1107.42,-450.192)">
        <g transform="matrix(0.980106,0,0,0.980106,556.368,-205.337)">
            <path d="M1787.85,733.746L1305.82,733.746L1305.82,975.509C1305.82,1039.23 1331.14,1100.35 1376.19,1145.4C1421.25,1190.46 1482.37,1215.78 1546.09,1215.78L1787.85,1215.78L1787.85,733.746Z" style="fill:rgb(165,1,1);stroke:black;stroke-width:1.06px;"/>
        </g>
        <g transform="matrix(1.43606,0,0,1.43606,-850.238,-1035.55)">
            <circle cx="2038.79" cy="1234.5" r="65.797" style="fill:white;stroke:black;stroke-width:0.73px;"/>
        </g>
        <g transform="matrix(1,0,0,1,48.9264,18.1666)">
            <g transform="matrix(0.897535,0,0,0.897535,296.097,-231.154)">
                <circle cx="2038.79" cy="1234.5" r="65.797" style="fill:rgb(165,1,1);stroke:black;stroke-width:1.16px;"/>
            </g>
            <g transform="matrix(0.448767,0,0,0.448767,1211.04,322.848)">
                <circle cx="2038.79" cy="1234.5" r="65.797" style="fill:white;stroke:black;stroke-width:2.32px;"/>
            </g>
        </g>
        <g transform="matrix(1,0,0,1,-19.1691,-52.5722)">
            <g transform="matrix(0.897535,0,0,0.897535,113.064,-411.154)">
                <circle cx="2038.79" cy="1234.5" r="65.797" style="fill:rgb(165,1,1);stroke:black;stroke-width:1.16px;stroke-linecap:butt;"/>
            </g>
            <g transform="matrix(0.448767,0,0,0.448767,1028.01,142.848)">
                <circle cx="2038.79" cy="1234.5" r="65.797" style="fill:white;stroke:black;stroke-width:2.32px;"/>
            </g>
        </g>
        <path d="M2255.51,549.245L2254.71,550.859C2254.4,551.475 2253.77,551.864 2253.08,551.864C2252.39,551.864 2251.76,551.475 2251.45,550.859L2250.65,549.245L2238.83,549.245L2238.02,550.859C2237.71,551.475 2237.08,551.864 2236.39,551.864C2235.7,551.864 2235.07,551.475 2234.76,550.859L2233.96,549.245L2222.14,549.245L2221.33,550.859C2221.02,551.475 2220.39,551.864 2219.7,551.864C2219.01,551.864 2218.39,551.475 2218.08,550.859L2217.27,549.245L2205.45,549.245L2204.64,550.859C2204.33,551.475 2203.7,551.864 2203.01,551.864C2202.33,551.864 2201.7,551.475 2201.39,550.859L2200.58,549.245L2188.76,549.245L2187.95,550.859C2187.65,551.475 2187.02,551.864 2186.33,551.864C2185.64,551.864 2185.01,551.475 2184.7,550.859L2183.89,549.245L2172.07,549.245L2171.27,550.859C2170.96,551.475 2170.33,551.864 2169.64,551.864C2168.95,551.864 2168.32,551.475 2168.01,550.859L2167.2,549.245L2155.38,549.245L2154.58,550.859C2154.27,551.475 2153.64,551.864 2152.95,551.864C2152.26,551.864 2151.63,551.475 2151.32,550.859L2150.52,549.245L2138.7,549.245L2137.89,550.859C2137.58,551.475 2136.95,551.864 2136.26,551.864C2135.57,551.864 2134.94,551.475 2134.63,550.859L2133.83,549.245L2122.01,549.245L2121.2,550.859C2120.89,551.475 2120.26,551.864 2119.57,551.864C2118.88,551.864 2118.25,551.475 2117.95,550.859L2117.14,549.245L2105.32,549.245L2104.51,550.859C2104.2,551.475 2103.57,551.864 2102.88,551.864C2102.2,551.864 2101.57,551.475 2101.26,550.859L2100.45,549.245L2088.63,549.245L2087.82,550.859C2087.51,551.475 2086.89,551.864 2086.2,551.864C2085.51,551.864 2084.88,551.475 2084.57,550.859L2083.76,549.245L2071.94,549.245L2071.13,550.859C2070.83,551.475 2070.2,551.864 2069.51,551.864C2068.82,551.864 2068.19,551.475 2067.88,550.859L2067.07,549.245L2055.25,549.245L2054.45,550.859C2054.14,551.475 2053.51,551.864 2052.82,551.864C2052.13,551.864 2051.5,551.475 2051.19,550.859L2050.38,549.245L2038.56,549.245L2037.76,550.859C2037.45,551.475 2036.82,551.864 2036.13,551.864C2035.44,551.864 2034.81,551.475 2034.5,550.859L2033.7,549.245L2021.88,549.245L2021.07,550.859C2020.76,551.475 2020.13,551.864 2019.44,551.864C2018.75,551.864 2018.12,551.475 2017.81,550.859L2017.01,549.245L2005.19,549.245L2004.38,550.859C2004.07,551.475 2003.44,551.864 2002.75,551.864C2002.06,551.864 2001.43,551.475 2001.12,550.859L2000.32,549.245L1988.5,549.245L1987.69,550.859C1987.38,551.475 1986.75,551.864 1986.06,551.864C1985.38,551.864 1984.75,551.475 1984.44,550.859L1983.63,549.245L1971.81,549.245L1971,550.859C1970.69,551.475 1970.07,551.864 1969.38,551.864C1968.69,551.864 1968.06,551.475 1967.75,550.859L1966.94,549.245L1955.12,549.245L1954.31,550.859C1954.01,551.475 1953.38,551.864 1952.69,551.864C1952,551.864 1951.37,551.475 1951.06,550.859L1950.25,549.245L1938.43,549.245L1937.63,550.859C1937.32,551.475 1936.69,551.864 1936,551.864C1935.31,551.864 1934.68,551.475 1934.37,550.859L1933.56,549.245L1921.74,549.245L1920.94,550.859C1920.63,551.475 1920,551.864 1919.31,551.864C1918.62,551.864 1917.99,551.475 1917.68,550.859L1916.88,549.245L1905.06,549.245L1904.25,550.859C1903.94,551.475 1903.31,551.864 1902.62,551.864C1901.93,551.864 1901.3,551.475 1900.99,550.859L1900.19,549.245L1888.37,549.245L1887.56,550.859C1887.25,551.475 1886.62,551.864 1885.93,551.864C1885.24,551.864 1884.61,551.475 1884.31,550.859L1883.5,549.245L1871.68,549.245L1870.87,550.859C1870.56,551.475 1869.93,551.864 1869.24,551.864C1868.56,551.864 1867.92,551.475 1867.62,550.859L1866.81,549.245L1854.99,549.245L1854.18,550.859C1853.88,551.475 1853.25,551.864 1852.56,551.864C1851.87,551.864 1851.24,551.475 1850.93,550.859L1850.12,549.245L1836.21,549.245L1836.21,513.812L2308.65,513.812L2308.65,986.253L2273.22,986.253L2273.22,972.577L2271.31,971.621C2270.69,971.313 2270.3,970.683 2270.3,969.993C2270.3,969.304 2270.69,968.674 2271.31,968.366L2273.22,967.41L2273.22,955.889L2271.31,954.932C2270.69,954.624 2270.3,953.994 2270.3,953.305C2270.3,952.616 2270.69,951.986 2271.31,951.678L2273.22,950.721L2273.22,939.2L2271.31,938.244C2270.69,937.935 2270.3,937.305 2270.3,936.616C2270.3,935.927 2270.69,935.297 2271.31,934.989L2273.22,934.033L2273.22,922.511L2271.31,921.555C2270.69,921.247 2270.3,920.617 2270.3,919.928C2270.3,919.239 2270.69,918.609 2271.31,918.3L2273.22,917.344L2273.22,905.823L2271.31,904.867C2270.69,904.558 2270.3,903.928 2270.3,903.239C2270.3,902.55 2270.69,901.92 2271.31,901.612L2273.22,900.656L2273.22,889.134L2271.31,888.178C2270.69,887.87 2270.3,887.24 2270.3,886.551C2270.3,885.862 2270.69,885.232 2271.31,884.923L2273.22,883.967L2273.22,872.446L2271.31,871.489C2270.69,871.181 2270.3,870.551 2270.3,869.862C2270.3,869.173 2270.69,868.543 2271.31,868.235L2273.22,867.278L2273.22,855.757L2271.31,854.801C2270.69,854.493 2270.3,853.863 2270.3,853.174C2270.3,852.484 2270.69,851.854 2271.31,851.546L2273.22,850.59L2273.22,839.069L2271.31,838.112C2270.69,837.804 2270.3,837.174 2270.3,836.485C2270.3,835.796 2270.69,835.166 2271.31,834.858L2273.22,833.901L2273.22,822.38L2271.31,821.424C2270.69,821.116 2270.3,820.486 2270.3,819.796C2270.3,819.107 2270.69,818.477 2271.31,818.169L2273.22,817.213L2273.22,805.692L2271.31,804.735C2270.69,804.427 2270.3,803.797 2270.3,803.108C2270.3,802.419 2270.69,801.789 2271.31,801.481L2273.22,800.524L2273.22,789.003L2271.31,788.047C2270.69,787.738 2270.3,787.108 2270.3,786.419C2270.3,785.73 2270.69,785.1 2271.31,784.792L2273.22,783.836L2273.22,772.314L2271.31,771.358C2270.69,771.05 2270.3,770.42 2270.3,769.731C2270.3,769.042 2270.69,768.412 2271.31,768.103L2273.22,767.147L2273.22,755.626L2271.31,754.67C2270.69,754.361 2270.3,753.731 2270.3,753.042C2270.3,752.353 2270.69,751.723 2271.31,751.415L2273.22,750.459L2273.22,738.937L2271.31,737.981C2270.69,737.673 2270.3,737.043 2270.3,736.354C2270.3,735.665 2270.69,735.035 2271.31,734.726L2273.22,733.77L2273.22,722.249L2271.31,721.292C2270.69,720.984 2270.3,720.354 2270.3,719.665C2270.3,718.976 2270.69,718.346 2271.31,718.038L2273.22,717.081L2273.22,705.56L2271.31,704.604C2270.69,704.296 2270.3,703.666 2270.3,702.977C2270.3,702.287 2270.69,701.657 2271.31,701.349L2273.22,700.393L2273.22,688.872L2271.31,687.915C2270.69,687.607 2270.3,686.977 2270.3,686.288C2270.3,685.599 2270.69,684.969 2271.31,684.661L2273.22,683.704L2273.22,672.183L2271.31,671.227C2270.69,670.919 2270.3,670.289 2270.3,669.599C2270.3,668.91 2270.69,668.28 2271.31,667.972L2273.22,667.016L2273.22,655.495L2271.31,654.538C2270.69,654.23 2270.3,653.6 2270.3,652.911C2270.3,652.222 2270.69,651.592 2271.31,651.284L2273.22,650.327L2273.22,638.806L2271.31,637.85C2270.69,637.541 2270.3,636.911 2270.3,636.222C2270.3,635.533 2270.69,634.903 2271.31,634.595L2273.22,633.639L2273.22,622.117L2271.31,621.161C2270.69,620.853 2270.3,620.223 2270.3,619.534C2270.3,618.845 2270.69,618.215 2271.31,617.906L2273.22,616.95L2273.22,605.429L2271.31,604.473C2270.69,604.164 2270.3,603.534 2270.3,602.845C2270.3,602.156 2270.69,601.526 2271.31,601.218L2273.22,600.262L2273.22,588.74L2271.31,587.784C2270.69,587.476 2270.3,586.846 2270.3,586.157C2270.3,585.468 2270.69,584.838 2271.31,584.529L2273.22,583.573L2273.22,572.052L2271.31,571.095C2270.69,570.787 2270.3,570.157 2270.3,569.468C2270.3,568.779 2270.69,568.149 2271.31,567.841L2273.22,566.884L2273.22,549.245L2255.51,549.245Z" style="fill:none;stroke:black;stroke-width:1.04px;"/>
    </g>
    <g transform="matrix(1,0,0,-1,-1107.42,1777.49)">
        <g transform="matrix(0.980106,0,0,0.980106,556.368,-205.337)">
            <path d="M1787.85,733.746L1305.82,733.746L1305.82,975.509C1305.82,1039.23 1331.14,1100.35 1376.19,1145.4C1421.25,1190.46 1482.37,1215.78 1546.09,1215.78L1787.85,1215.78L1787.85,733.746Z" style="fill:rgb(165,1,1);stroke:black;stroke-width:1.06px;"/>
        </g>
        <g transform="matrix(1.43606,0,0,1.43606,-850.238,-1035.55)">
            <circle cx="2038.79" cy="1234.5" r="65.797" style="fill:white;stroke:black;stroke-width:0.73px;"/>
        </g>
        <g transform="matrix(1,0,0,1,48.9264,18.1666)">
            <g transform="matrix(0.897535,0,0,0.897535,296.097,-231.154)">
                <circle cx="2038.79" cy="1234.5" r="65.797" style="fill:rgb(165,1,1);stroke:black;stroke-width:1.16px;"/>
            </g>
            <g transform="matrix(0.448767,0,0,0.448767,1211.04,322.848)">
                <circle cx="2038.79" cy="1234.5" r="65.797" style="fill:white;stroke:black;stroke-width:2.32px;"/>
            </g>
        </g>
        <g transform="matrix(1,0,0,1,-19.1691,-52.5722)">
            <g transform="matrix(0.897535,0,0,0.897535,113.064,-411.154)">
                <circle cx="2038.79" cy="1234.5" r="65.797" style="fill:rgb(165,1,1);stroke:black;stroke-width:1.16px;stroke-linecap:butt;"/>
            </g>
            <g transform="matrix(0.448767,0,0,0.448767,1028.01,142.848)">
                <circle cx="2038.79" cy="1234.5" r="65.797" style="fill:white;stroke:black;stroke-width:2.32px;"/>
            </g>
        </g>
        <path d="M2255.51,549.245L2254.71,550.859C2254.4,551.475 2253.77,551.864 2253.08,551.864C2252.39,551.864 2251.76,551.475 2251.45,550.859L2250.65,549.245L2238.83,549.245L2238.02,550.859C2237.71,551.475 2237.08,551.864 2236.39,551.864C2235.7,551.864 2235.07,551.475 2234.76,550.859L2233.96,549.245L2222.14,549.245L2221.33,550.859C2221.02,551.475 2220.39,551.864 2219.7,551.864C2219.01,551.864 2218.39,551.475 2218.08,550.859L2217.27,549.245L2205.45,549.245L2204.64,550.859C2204.33,551.475 2203.7,551.864 2203.01,551.864C2202.33,551.864 2201.7,551.475 2201.39,550.859L2200.58,549.245L2188.76,549.245L2187.95,550.859C2187.65,551.475 2187.02,551.864 2186.33,551.864C2185.64,551.864 2185.01,551.475 2184.7,550.859L2183.89,549.245L2172.07,549.245L2171.27,550.859C2170.96,551.475 2170.33,551.864 2169.64,551.864C2168.95,551.864 2168.32,551.475 2168.01,550.859L2167.2,549.245L2155.38,549.245L2154.58,550.859C2154.27,551.475 2153.64,551.864 2152.95,551.864C2152.26,551.864 2151.63,551.475 2151.32,550.859L2150.52,549.245L2138.7,549.245L2137.89,550.859C2137.58,551.475 2136.95,551.864 2136.26,551.864C2135.57,551.864 2134.94,551.475 2134.63,550.859L2133.83,549.245L2122.01,549.245L2121.2,550.859C2120.89,551.475 2120.26,551.864 2119.57,551.864C2118.88,551.864 2118.25,551.475 2117.95,550.859L2117.14,549.245L2105.32,549.245L2104.51,550.859C2104.2,551.475 2103.57,551.864 2102.88,551.864C2102.2,551.864 2101.57,551.475 2101.26,550.859L2100.45,549.245L2088.63,549.245L2087.82,550.859C2087.51,551.475 2086.89,551.864 2086.2,551.864C2085.51,551.864 2084.88,551.475 2084.57,550.859L2083.76,549.245L2071.94,549.245L2071.13,550.859C2070.83,551.475 2070.2,551.864 2069.51,551.864C2068.82,551.864 2068.19,551.475 2067.88,550.859L2067.07,549.245L2055.25,549.245L2054.45,550.859C2054.14,551.475 2053.51,551.864 2052.82,551.864C2052.13,551.864 2051.5,551.475 2051.19,550.859L2050.38,549.245L2038.56,549.245L2037.76,550.859C2037.45,551.475 2036.82,551.864 2036.13,551.864C2035.44,551.864 2034.81,551.475 2034.5,550.859L2033.7,549.245L2021.88,549.245L2021.07,550.859C2020.76,551.475 2020.13,551.864 2019.44,551.864C2018.75,551.864 2018.12,551.475 2017.81,550.859L2017.01,549.245L2005.19,549.245L2004.38,550.859C2004.07,551.475 2003.44,551.864 2002.75,551.864C2002.06,551.864 2001.43,551.475 2001.12,550.859L2000.32,549.245L1988.5,549.245L1987.69,550.859C1987.38,551.475 1986.75,551.864 1986.06,551.864C1985.38,551.864 1984.75,551.475 1984.44,550.859L1983.63,549.245L1971.81,549.245L1971,550.859C1970.69,551.475 1970.07,551.864 1969.38,551.864C1968.69,551.864 1968.06,551.475 1967.75,550.859L1966.94,549.245L1955.12,549.245L1954.31,550.859C1954.01,551.475 1953.38,551.864 1952.69,551.864C1952,551.864 1951.37,551.475 1951.06,550.859L1950.25,549.245L1938.43,549.245L1937.63,550.859C1937.32,551.475 1936.69,551.864 1936,551.864C1935.31,551.864 1934.68,551.475 1934.37,550.859L1933.56,549.245L1921.74,549.245L1920.94,550.859C1920.63,551.475 1920,551.864 1919.31,551.864C1918.62,551.864 1917.99,551.475 1917.68,550.859L1916.88,549.245L1905.06,549.245L1904.25,550.859C1903.94,551.475 1903.31,551.864 1902.62,551.864C1901.93,551.864 1901.3,551.475 1900.99,550.859L1900.19,549.245L1888.37,549.245L1887.56,550.859C1887.25,551.475 1886.62,551.864 1885.93,551.864C1885.24,551.864 1884.61,551.475 1884.31,550.859L1883.5,549.245L1871.68,549.245L1870.87,550.859C1870.56,551.475 1869.93,551.864 1869.24,551.864C1868.56,551.864 1867.92,551.475 1867.62,550.859L1866.81,549.245L1854.99,549.245L1854.18,550.859C1853.88,551.475 1853.25,551.864 1852.56,551.864C1851.87,551.864 1851.24,551.475 1850.93,550.859L1850.12,549.245L1836.21,549.245L1836.21,513.812L2308.65,513.812L2308.65,986.253L2273.22,986.253L2273.22,972.577L2271.31,971.621C2270.69,971.313 2270.3,970.683 2270.3,969.993C2270.3,969.304 2270.69,968.674 2271.31,968.366L2273.22,967.41L2273.22,955.889L2271.31,954.932C2270.69,954.624 2270.3,953.994 2270.3,953.305C2270.3,952.616 2270.69,951.986 2271.31,951.678L2273.22,950.721L2273.22,939.2L2271.31,938.244C2270.69,937.935 2270.3,937.305 2270.3,936.616C2270.3,935.927 2270.69,935.297 2271.31,934.989L2273.22,934.033L2273.22,922.511L2271.31,921.555C2270.69,921.247 2270.3,920.617 2270.3,919.928C2270.3,919.239 2270.69,918.609 2271.31,918.3L2273.22,917.344L2273.22,905.823L2271.31,904.867C2270.69,904.558 2270.3,903.928 2270.3,903.239C2270.3,902.55 2270.69,901.92 2271.31,901.612L2273.22,900.656L2273.22,889.134L2271.31,888.178C2270.69,887.87 2270.3,887.24 2270.3,886.551C2270.3,885.862 2270.69,885.232 2271.31,884.923L2273.22,883.967L2273.22,872.446L2271.31,871.489C2270.69,871.181 2270.3,870.551 2270.3,869.862C2270.3,869.173 2270.69,868.543 2271.31,868.235L2273.22,867.278L2273.22,855.757L2271.31,854.801C2270.69,854.493 2270.3,853.863 2270.3,853.174C2270.3,852.484 2270.69,851.854 2271.31,851.546L2273.22,850.59L2273.22,839.069L2271.31,838.112C2270.69,837.804 2270.3,837.174 2270.3,836.485C2270.3,835.796 2270.69,835.166 2271.31,834.858L2273.22,833.901L2273.22,822.38L2271.31,821.424C2270.69,821.116 2270.3,820.486 2270.3,819.796C2270.3,819.107 2270.69,818.477 2271.31,818.169L2273.22,817.213L2273.22,805.692L2271.31,804.735C2270.69,804.427 2270.3,803.797 2270.3,803.108C2270.3,802.419 2270.69,801.789 2271.31,801.481L2273.22,800.524L2273.22,789.003L2271.31,788.047C2270.69,787.738 2270.3,787.108 2270.3,786.419C2270.3,785.73 2270.69,785.1 2271.31,784.792L2273.22,783.836L2273.22,772.314L2271.31,771.358C2270.69,771.05 2270.3,770.42 2270.3,769.731C2270.3,769.042 2270.69,768.412 2271.31,768.103L2273.22,767.147L2273.22,755.626L2271.31,754.67C2270.69,754.361 2270.3,753.731 2270.3,753.042C2270.3,752.353 2270.69,751.723 2271.31,751.415L2273.22,750.459L2273.22,738.937L2271.31,737.981C2270.69,737.673 2270.3,737.043 2270.3,736.354C2270.3,735.665 2270.69,735.035 2271.31,734.726L2273.22,733.77L2273.22,722.249L2271.31,721.292C2270.69,720.984 2270.3,720.354 2270.3,719.665C2270.3,718.976 2270.69,718.346 2271.31,718.038L2273.22,717.081L2273.22,705.56L2271.31,704.604C2270.69,704.296 2270.3,703.666 2270.3,702.977C2270.3,702.287 2270.69,701.657 2271.31,701.349L2273.22,700.393L2273.22,688.872L2271.31,687.915C2270.69,687.607 2270.3,686.977 2270.3,686.288C2270.3,685.599 2270.69,684.969 2271.31,684.661L2273.22,683.704L2273.22,672.183L2271.31,671.227C2270.69,670.919 2270.3,670.289 2270.3,669.599C2270.3,668.91 2270.69,668.28 2271.31,667.972L2273.22,667.016L2273.22,655.495L2271.31,654.538C2270.69,654.23 2270.3,653.6 2270.3,652.911C2270.3,652.222 2270.69,651.592 2271.31,651.284L2273.22,650.327L2273.22,638.806L2271.31,637.85C2270.69,637.541 2270.3,636.911 2270.3,636.222C2270.3,635.533 2270.69,634.903 2271.31,634.595L2273.22,633.639L2273.22,622.117L2271.31,621.161C2270.69,620.853 2270.3,620.223 2270.3,619.534C2270.3,618.845 2270.69,618.215 2271.31,617.906L2273.22,616.95L2273.22,605.429L2271.31,604.473C2270.69,604.164 2270.3,603.534 2270.3,602.845C2270.3,602.156 2270.69,601.526 2271.31,601.218L2273.22,600.262L2273.22,588.74L2271.31,587.784C2270.69,587.476 2270.3,586.846 2270.3,586.157C2270.3,585.468 2270.69,584.838 2271.31,584.529L2273.22,583.573L2273.22,572.052L2271.31,571.095C2270.69,570.787 2270.3,570.157 2270.3,569.468C2270.3,568.779 2270.69,568.149 2271.31,567.841L2273.22,566.884L2273.22,549.245L2255.51,549.245Z" style="fill:none;stroke:black;stroke-width:1.04px;"/>
    </g>
    <g transform="matrix(-1,0,0,1,2367.05,-450.192)">
        <g transform="matrix(0.980106,0,0,0.980106,556.368,-205.337)">
            <path d="M1787.85,733.746L1305.82,733.746L1305.82,975.509C1305.82,1039.23 1331.14,1100.35 1376.19,1145.4C1421.25,1190.46 1482.37,1215.78 1546.09,1215.78L1787.85,1215.78L1787.85,733.746Z" style="fill:rgb(165,1,1);stroke:black;stroke-width:1.06px;"/>
        </g>
        <g transform="matrix(1.43606,0,0,1.43606,-850.238,-1035.55)">
            <circle cx="2038.79" cy="1234.5" r="65.797" style="fill:white;stroke:black;stroke-width:0.73px;"/>
        </g>
        <g transform="matrix(1,0,0,1,48.9264,18.1666)">
            <g transform="matrix(0.897535,0,0,0.897535,296.097,-231.154)">
                <circle cx="2038.79" cy="1234.5" r="65.797" style="fill:rgb(165,1,1);stroke:black;stroke-width:1.16px;"/>
            </g>
            <g transform="matrix(0.448767,0,0,0.448767,1211.04,322.848)">
                <circle cx="2038.79" cy="1234.5" r="65.797" style="fill:white;stroke:black;stroke-width:2.32px;"/>
            </g>
        </g>
        <g transform="matrix(1,0,0,1,-19.1691,-52.5722)">
            <g transform="matrix(0.897535,0,0,0.897535,113.064,-411.154)">
                <circle cx="2038.79" cy="1234.5" r="65.797" style="fill:rgb(165,1,1);stroke:black;stroke-width:1.16px;stroke-linecap:butt;"/>
            </g>
            <g transform="matrix(0.448767,0,0,0.448767,1028.01,142.848)">
                <circle cx="2038.79" cy="1234.5" r="65.797" style="fill:white;stroke:black;stroke-width:2.32px;"/>
            </g>
        </g>
        <path d="M2255.51,549.245L2254.71,550.859C2254.4,551.475 2253.77,551.864 2253.08,551.864C2252.39,551.864 2251.76,551.475 2251.45,550.859L2250.65,549.245L2238.83,549.245L2238.02,550.859C2237.71,551.475 2237.08,551.864 2236.39,551.864C2235.7,551.864 2235.07,551.475 2234.76,550.859L2233.96,549.245L2222.14,549.245L2221.33,550.859C2221.02,551.475 2220.39,551.864 2219.7,551.864C2219.01,551.864 2218.39,551.475 2218.08,550.859L2217.27,549.245L2205.45,549.245L2204.64,550.859C2204.33,551.475 2203.7,551.864 2203.01,551.864C2202.33,551.864 2201.7,551.475 2201.39,550.859L2200.58,549.245L2188.76,549.245L2187.95,550.859C2187.65,551.475 2187.02,551.864 2186.33,551.864C2185.64,551.864 2185.01,551.475 2184.7,550.859L2183.89,549.245L2172.07,549.245L2171.27,550.859C2170.96,551.475 2170.33,551.864 2169.64,551.864C2168.95,551.864 2168.32,551.475 2168.01,550.859L2167.2,549.245L2155.38,549.245L2154.58,550.859C2154.27,551.475 2153.64,551.864 2152.95,551.864C2152.26,551.864 2151.63,551.475 2151.32,550.859L2150.52,549.245L2138.7,549.245L2137.89,550.859C2137.58,551.475 2136.95,551.864 2136.26,551.864C2135.57,551.864 2134.94,551.475 2134.63,550.859L2133.83,549.245L2122.01,549.245L2121.2,550.859C2120.89,551.475 2120.26,551.864 2119.57,551.864C2118.88,551.864 2118.25,551.475 2117.95,550.859L2117.14,549.245L2105.32,549.245L2104.51,550.859C2104.2,551.475 2103.57,551.864 2102.88,551.864C2102.2,551.864 2101.57,551.475 2101.26,550.859L2100.45,549.245L2088.63,549.245L2087.82,550.859C2087.51,551.475 2086.89,551.864 2086.2,551.864C2085.51,551.864 2084.88,551.475 2084.57,550.859L2083.76,549.245L2071.94,549.245L2071.13,550.859C2070.83,551.475 2070.2,551.864 2069.51,551.864C2068.82,551.864 2068.19,551.475 2067.88,550.859L2067.07,549.245L2055.25,549.245L2054.45,550.859C2054.14,551.475 2053.51,551.864 2052.82,551.864C2052.13,551.864 2051.5,551.475 2051.19,550.859L2050.38,549.245L2038.56,549.245L2037.76,550.859C2037.45,551.475 2036.82,551.864 2036.13,551.864C2035.44,551.864 2034.81,551.475 2034.5,550.859L2033.7,549.245L2021.88,549.245L2021.07,550.859C2020.76,551.475 2020.13,551.864 2019.44,551.864C2018.75,551.864 2018.12,551.475 2017.81,550.859L2017.01,549.245L2005.19,549.245L2004.38,550.859C2004.07,551.475 2003.44,551.864 2002.75,551.864C2002.06,551.864 2001.43,551.475 2001.12,550.859L2000.32,549.245L1988.5,549.245L1987.69,550.859C1987.38,551.475 1986.75,551.864 1986.06,551.864C1985.38,551.864 1984.75,551.475 1984.44,550.859L1983.63,549.245L1971.81,549.245L1971,550.859C1970.69,551.475 1970.07,551.864 1969.38,551.864C1968.69,551.864 1968.06,551.475 1967.75,550.859L1966.94,549.245L1955.12,549.245L1954.31,550.859C1954.01,551.475 1953.38,551.864 1952.69,551.864C1952,551.864 1951.37,551.475 1951.06,550.859L1950.25,549.245L1938.43,549.245L1937.63,550.859C1937.32,551.475 1936.69,551.864 1936,551.864C1935.31,551.864 1934.68,551.475 1934.37,550.859L1933.56,549.245L1921.74,549.245L1920.94,550.859C1920.63,551.475 1920,551.864 1919.31,551.864C1918.62,551.864 1917.99,551.475 1917.68,550.859L1916.88,549.245L1905.06,549.245L1904.25,550.859C1903.94,551.475 1903.31,551.864 1902.62,551.864C1901.93,551.864 1901.3,551.475 1900.99,550.859L1900.19,549.245L1888.37,549.245L1887.56,550.859C1887.25,551.475 1886.62,551.864 1885.93,551.864C1885.24,551.864 1884.61,551.475 1884.31,550.859L1883.5,549.245L1871.68,549.245L1870.87,550.859C1870.56,551.475 1869.93,551.864 1869.24,551.864C1868.56,551.864 1867.92,551.475 1867.62,550.859L1866.81,549.245L1854.99,549.245L1854.18,550.859C1853.88,551.475 1853.25,551.864 1852.56,551.864C1851.87,551.864 1851.24,551.475 1850.93,550.859L1850.12,549.245L1836.21,549.245L1836.21,513.812L2308.65,513.812L2308.65,986.253L2273.22,986.253L2273.22,972.577L2271.31,971.621C2270.69,971.313 2270.3,970.683 2270.3,969.993C2270.3,969.304 2270.69,968.674 2271.31,968.366L2273.22,967.41L2273.22,955.889L2271.31,954.932C2270.69,954.624 2270.3,953.994 2270.3,953.305C2270.3,952.616 2270.69,951.986 2271.31,951.678L2273.22,950.721L2273.22,939.2L2271.31,938.244C2270.69,937.935 2270.3,937.305 2270.3,936.616C2270.3,935.927 2270.69,935.297 2271.31,934.989L2273.22,934.033L2273.22,922.511L2271.31,921.555C2270.69,921.247 2270.3,920.617 2270.3,919.928C2270.3,919.239 2270.69,918.609 2271.31,918.3L2273.22,917.344L2273.22,905.823L2271.31,904.867C2270.69,904.558 2270.3,903.928 2270.3,903.239C2270.3,902.55 2270.69,901.92 2271.31,901.612L2273.22,900.656L2273.22,889.134L2271.31,888.178C2270.69,887.87 2270.3,887.24 2270.3,886.551C2270.3,885.862 2270.69,885.232 2271.31,884.923L2273.22,883.967L2273.22,872.446L2271.31,871.489C2270.69,871.181 2270.3,870.551 2270.3,869.862C2270.3,869.173 2270.69,868.543 2271.31,868.235L2273.22,867.278L2273.22,855.757L2271.31,854.801C2270.69,854.493 2270.3,853.863 2270.3,853.174C2270.3,852.484 2270.69,851.854 2271.31,851.546L2273.22,850.59L2273.22,839.069L2271.31,838.112C2270.69,837.804 2270.3,837.174 2270.3,836.485C2270.3,835.796 2270.69,835.166 2271.31,834.858L2273.22,833.901L2273.22,822.38L2271.31,821.424C2270.69,821.116 2270.3,820.486 2270.3,819.796C2270.3,819.107 2270.69,818.477 2271.31,818.169L2273.22,817.213L2273.22,805.692L2271.31,804.735C2270.69,804.427 2270.3,803.797 2270.3,803.108C2270.3,802.419 2270.69,801.789 2271.31,801.481L2273.22,800.524L2273.22,789.003L2271.31,788.047C2270.69,787.738 2270.3,787.108 2270.3,786.419C2270.3,785.73 2270.69,785.1 2271.31,784.792L2273.22,783.836L2273.22,772.314L2271.31,771.358C2270.69,771.05 2270.3,770.42 2270.3,769.731C2270.3,769.042 2270.69,768.412 2271.31,768.103L2273.22,767.147L2273.22,755.626L2271.31,754.67C2270.69,754.361 2270.3,753.731 2270.3,753.042C2270.3,752.353 2270.69,751.723 2271.31,751.415L2273.22,750.459L2273.22,738.937L2271.31,737.981C2270.69,737.673 2270.3,737.043 2270.3,736.354C2270.3,735.665 2270.69,735.035 2271.31,734.726L2273.22,733.77L2273.22,722.249L2271.31,721.292C2270.69,720.984 2270.3,720.354 2270.3,719.665C2270.3,718.976 2270.69,718.346 2271.31,718.038L2273.22,717.081L2273.22,705.56L2271.31,704.604C2270.69,704.296 2270.3,703.666 2270.3,702.977C2270.3,702.287 2270.69,701.657 2271.31,701.349L2273.22,700.393L2273.22,688.872L2271.31,687.915C2270.69,687.607 2270.3,686.977 2270.3,686.288C2270.3,685.599 2270.69,684.969 2271.31,684.661L2273.22,683.704L2273.22,672.183L2271.31,671.227C2270.69,670.919 2270.3,670.289 2270.3,669.599C2270.3,668.91 2270.69,668.28 2271.31,667.972L2273.22,667.016L2273.22,655.495L2271.31,654.538C2270.69,654.23 2270.3,653.6 2270.3,652.911C2270.3,652.222 2270.69,651.592 2271.31,651.284L2273.22,650.327L2273.22,638.806L2271.31,637.85C2270.69,637.541 2270.3,636.911 2270.3,636.222C2270.3,635.533 2270.69,634.903 2271.31,634.595L2273.22,633.639L2273.22,622.117L2271.31,621.161C2270.69,620.853 2270.3,620.223 2270.3,619.534C2270.3,618.845 2270.69,618.215 2271.31,617.906L2273.22,616.95L2273.22,605.429L2271.31,604.473C2270.69,604.164 2270.3,603.534 2270.3,602.845C2270.3,602.156 2270.69,601.526 2271.31,601.218L2273.22,600.262L2273.22,588.74L2271.31,587.784C2270.69,587.476 2270.3,586.846 2270.3,586.157C2270.3,585.468 2270.69,584.838 2271.31,584.529L2273.22,583.573L2273.22,572.052L2271.31,571.095C2270.69,570.787 2270.3,570.157 2270.3,569.468C2270.3,568.779 2270.69,568.149 2271.31,567.841L2273.22,566.884L2273.22,549.245L2255.51,549.245Z" style="fill:none;stroke:black;stroke-width:1.04px;"/>
    </g>
    <g transform="matrix(-1,0,0,-1,2367.05,1777.49)">
        <g transform="matrix(0.980106,0,0,0.980106,556.368,-205.337)">
            <path d="M1787.85,733.746L1305.82,733.746L1305.82,975.509C1305.82,1039.23 1331.14,1100.35 1376.19,1145.4C1421.25,1190.46 1482.37,1215.78 1546.09,1215.78L1787.85,1215.78L1787.85,733.746Z" style="fill:rgb(165,1,1);stroke:black;stroke-width:1.06px;"/>
        </g>
        <g transform="matrix(1.43606,0,0,1.43606,-850.238,-1035.55)">
            <circle cx="2038.79" cy="1234.5" r="65.797" style="fill:white;stroke:black;stroke-width:0.73px;"/>
        </g>
        <g transform="matrix(1,0,0,1,48.9264,18.1666)">
            <g transform="matrix(0.897535,0,0,0.897535,296.097,-231.154)">
                <circle cx="2038.79" cy="1234.5" r="65.797" style="fill:rgb(165,1,1);stroke:black;stroke-width:1.16px;"/>
            </g>
            <g transform="matrix(0.448767,0,0,0.448767,1211.04,322.848)">
                <circle cx="2038.79" cy="1234.5" r="65.797" style="fill:white;stroke:black;stroke-width:2.32px;"/>
            </g>
        </g>
        <g transform="matrix(1,0,0,1,-19.1691,-52.5722)">
            <g transform="matrix(0.897535,0,0,0.897535,113.064,-411.154)">
                <circle cx="2038.79" cy="1234.5" r="65.797" style="fill:rgb(165,1,1);stroke:black;stroke-width:1.16px;stroke-linecap:butt;"/>
            </g>
            <g transform="matrix(0.448767,0,0,0.448767,1028.01,142.848)">
                <circle cx="2038.79" cy="1234.5" r="65.797" style="fill:white;stroke:black;stroke-width:2.32px;"/>
            </g>
        </g>
        <path d="M2255.51,549.245L2254.71,550.859C2254.4,551.475 2253.77,551.864 2253.08,551.864C2252.39,551.864 2251.76,551.475 2251.45,550.859L2250.65,549.245L2238.83,549.245L2238.02,550.859C2237.71,551.475 2237.08,551.864 2236.39,551.864C2235.7,551.864 2235.07,551.475 2234.76,550.859L2233.96,549.245L2222.14,549.245L2221.33,550.859C2221.02,551.475 2220.39,551.864 2219.7,551.864C2219.01,551.864 2218.39,551.475 2218.08,550.859L2217.27,549.245L2205.45,549.245L2204.64,550.859C2204.33,551.475 2203.7,551.864 2203.01,551.864C2202.33,551.864 2201.7,551.475 2201.39,550.859L2200.58,549.245L2188.76,549.245L2187.95,550.859C2187.65,551.475 2187.02,551.864 2186.33,551.864C2185.64,551.864 2185.01,551.475 2184.7,550.859L2183.89,549.245L2172.07,549.245L2171.27,550.859C2170.96,551.475 2170.33,551.864 2169.64,551.864C2168.95,551.864 2168.32,551.475 2168.01,550.859L2167.2,549.245L2155.38,549.245L2154.58,550.859C2154.27,551.475 2153.64,551.864 2152.95,551.864C2152.26,551.864 2151.63,551.475 2151.32,550.859L2150.52,549.245L2138.7,549.245L2137.89,550.859C2137.58,551.475 2136.95,551.864 2136.26,551.864C2135.57,551.864 2134.94,551.475 2134.63,550.859L2133.83,549.245L2122.01,549.245L2121.2,550.859C2120.89,551.475 2120.26,551.864 2119.57,551.864C2118.88,551.864 2118.25,551.475 2117.95,550.859L2117.14,549.245L2105.32,549.245L2104.51,550.859C2104.2,551.475 2103.57,551.864 2102.88,551.864C2102.2,551.864 2101.57,551.475 2101.26,550.859L2100.45,549.245L2088.63,549.245L2087.82,550.859C2087.51,551.475 2086.89,551.864 2086.2,551.864C2085.51,551.864 2084.88,551.475 2084.57,550.859L2083.76,549.245L2071.94,549.245L2071.13,550.859C2070.83,551.475 2070.2,551.864 2069.51,551.864C2068.82,551.864 2068.19,551.475 2067.88,550.859L2067.07,549.245L2055.25,549.245L2054.45,550.859C2054.14,551.475 2053.51,551.864 2052.82,551.864C2052.13,551.864 2051.5,551.475 2051.19,550.859L2050.38,549.245L2038.56,549.245L2037.76,550.859C2037.45,551.475 2036.82,551.864 2036.13,551.864C2035.44,551.864 2034.81,551.475 2034.5,550.859L2033.7,549.245L2021.88,549.245L2021.07,550.859C2020.76,551.475 2020.13,551.864 2019.44,551.864C2018.75,551.864 2018.12,551.475 2017.81,550.859L2017.01,549.245L2005.19,549.245L2004.38,550.859C2004.07,551.475 2003.44,551.864 2002.75,551.864C2002.06,551.864 2001.43,551.475 2001.12,550.859L2000.32,549.245L1988.5,549.245L1987.69,550.859C1987.38,551.475 1986.75,551.864 1986.06,551.864C1985.38,551.864 1984.75,551.475 1984.44,550.859L1983.63,549.245L1971.81,549.245L1971,550.859C1970.69,551.475 1970.07,551.864 1969.38,551.864C1968.69,551.864 1968.06,551.475 1967.75,550.859L1966.94,549.245L1955.12,549.245L1954.31,550.859C1954.01,551.475 1953.38,551.864 1952.69,551.864C1952,551.864 1951.37,551.475 1951.06,550.859L1950.25,549.245L1938.43,549.245L1937.63,550.859C1937.32,551.475 1936.69,551.864 1936,551.864C1935.31,551.864 1934.68,551.475 1934.37,550.859L1933.56,549.245L1921.74,549.245L1920.94,550.859C1920.63,551.475 1920,551.864 1919.31,551.864C1918.62,551.864 1917.99,551.475 1917.68,550.859L1916.88,549.245L1905.06,549.245L1904.25,550.859C1903.94,551.475 1903.31,551.864 1902.62,551.864C1901.93,551.864 1901.3,551.475 1900.99,550.859L1900.19,549.245L1888.37,549.245L1887.56,550.859C1887.25,551.475 1886.62,551.864 1885.93,551.864C1885.24,551.864 1884.61,551.475 1884.31,550.859L1883.5,549.245L1871.68,549.245L1870.87,550.859C1870.56,551.475 1869.93,551.864 1869.24,551.864C1868.56,551.864 1867.92,551.475 1867.62,550.859L1866.81,549.245L1854.99,549.245L1854.18,550.859C1853.88,551.475 1853.25,551.864 1852.56,551.864C1851.87,551.864 1851.24,551.475 1850.93,550.859L1850.12,549.245L1836.21,549.245L1836.21,513.812L2308.65,513.812L2308.65,986.253L2273.22,986.253L2273.22,972.577L2271.31,971.621C2270.69,971.313 2270.3,970.683 2270.3,969.993C2270.3,969.304 2270.69,968.674 2271.31,968.366L2273.22,967.41L2273.22,955.889L2271.31,954.932C2270.69,954.624 2270.3,953.994 2270.3,953.305C2270.3,952.616 2270.69,951.986 2271.31,951.678L2273.22,950.721L2273.22,939.2L2271.31,938.244C2270.69,937.935 2270.3,937.305 2270.3,936.616C2270.3,935.927 2270.69,935.297 2271.31,934.989L2273.22,934.033L2273.22,922.511L2271.31,921.555C2270.69,921.247 2270.3,920.617 2270.3,919.928C2270.3,919.239 2270.69,918.609 2271.31,918.3L2273.22,917.344L2273.22,905.823L2271.31,904.867C2270.69,904.558 2270.3,903.928 2270.3,903.239C2270.3,902.55 2270.69,901.92 2271.31,901.612L2273.22,900.656L2273.22,889.134L2271.31,888.178C2270.69,887.87 2270.3,887.24 2270.3,886.551C2270.3,885.862 2270.69,885.232 2271.31,884.923L2273.22,883.967L2273.22,872.446L2271.31,871.489C2270.69,871.181 2270.3,870.551 2270.3,869.862C2270.3,869.173 2270.69,868.543 2271.31,868.235L2273.22,867.278L2273.22,855.757L2271.31,854.801C2270.69,854.493 2270.3,853.863 2270.3,853.174C2270.3,852.484 2270.69,851.854 2271.31,851.546L2273.22,850.59L2273.22,839.069L2271.31,838.112C2270.69,837.804 2270.3,837.174 2270.3,836.485C2270.3,835.796 2270.69,835.166 2271.31,834.858L2273.22,833.901L2273.22,822.38L2271.31,821.424C2270.69,821.116 2270.3,820.486 2270.3,819.796C2270.3,819.107 2270.69,818.477 2271.31,818.169L2273.22,817.213L2273.22,805.692L2271.31,804.735C2270.69,804.427 2270.3,803.797 2270.3,803.108C2270.3,802.419 2270.69,801.789 2271.31,801.481L2273.22,800.524L2273.22,789.003L2271.31,788.047C2270.69,787.738 2270.3,787.108 2270.3,786.419C2270.3,785.73 2270.69,785.1 2271.31,784.792L2273.22,783.836L2273.22,772.314L2271.31,771.358C2270.69,771.05 2270.3,770.42 2270.3,769.731C2270.3,769.042 2270.69,768.412 2271.31,768.103L2273.22,767.147L2273.22,755.626L2271.31,754.67C2270.69,754.361 2270.3,753.731 2270.3,753.042C2270.3,752.353 2270.69,751.723 2271.31,751.415L2273.22,750.459L2273.22,738.937L2271.31,737.981C2270.69,737.673 2270.3,737.043 2270.3,736.354C2270.3,735.665 2270.69,735.035 2271.31,734.726L2273.22,733.77L2273.22,722.249L2271.31,721.292C2270.69,720.984 2270.3,720.354 2270.3,719.665C2270.3,718.976 2270.69,718.346 2271.31,718.038L2273.22,717.081L2273.22,705.56L2271.31,704.604C2270.69,704.296 2270.3,703.666 2270.3,702.977C2270.3,702.287 2270.69,701.657 2271.31,701.349L2273.22,700.393L2273.22,688.872L2271.31,687.915C2270.69,687.607 2270.3,686.977 2270.3,686.288C2270.3,685.599 2270.69,684.969 2271.31,684.661L2273.22,683.704L2273.22,672.183L2271.31,671.227C2270.69,670.919 2270.3,670.289 2270.3,669.599C2270.3,668.91 2270.69,668.28 2271.31,667.972L2273.22,667.016L2273.22,655.495L2271.31,654.538C2270.69,654.23 2270.3,653.6 2270.3,652.911C2270.3,652.222 2270.69,651.592 2271.31,651.284L2273.22,650.327L2273.22,638.806L2271.31,637.85C2270.69,637.541 2270.3,636.911 2270.3,636.222C2270.3,635.533 2270.69,634.903 2271.31,634.595L2273.22,633.639L2273.22,622.117L2271.31,621.161C2270.69,620.853 2270.3,620.223 2270.3,619.534C2270.3,618.845 2270.69,618.215 2271.31,617.906L2273.22,616.95L2273.22,605.429L2271.31,604.473C2270.69,604.164 2270.3,603.534 2270.3,602.845C2270.3,602.156 2270.69,601.526 2271.31,601.218L2273.22,600.262L2273.22,588.74L2271.31,587.784C2270.69,587.476 2270.3,586.846 2270.3,586.157C2270.3,585.468 2270.69,584.838 2271.31,584.529L2273.22,583.573L2273.22,572.052L2271.31,571.095C2270.69,570.787 2270.3,570.157 2270.3,569.468C2270.3,568.779 2270.69,568.149 2271.31,567.841L2273.22,566.884L2273.22,549.245L2255.51,549.245Z" style="fill:none;stroke:black;stroke-width:1.04px;"/>
    </g>
    <g transform="matrix(0.980106,0,0,0.980106,9.60589,-129.914)">
        <path d="M1787.85,733.746L1305.82,733.746L1305.82,975.509C1305.82,1039.23 1331.14,1100.35 1376.19,1145.4C1421.25,1190.46 1482.37,1215.78 1546.09,1215.78L1787.85,1215.78L1787.85,733.746Z" style="fill:none;stroke:black;stroke-width:1.06px;"/>
    </g>
    <g transform="matrix(0.980106,0,0,0.980106,938.579,35.7681)">
        <path d="M1787.85,733.746L1305.82,733.746L1305.82,975.509C1305.82,1039.23 1331.14,1100.35 1376.19,1145.4C1421.25,1190.46 1482.37,1215.78 1546.09,1215.78L1787.85,1215.78L1787.85,733.746Z" style="fill:none;stroke:black;stroke-width:1.06px;"/>
    </g>
    <g transform="matrix(1.23077,0,0,1.23077,-1136.98,-305.761)">
        <g transform="matrix(1.1668,0,0,1.1668,-206.395,-531.166)">
            <circle cx="2038.79" cy="1234.5" r="65.797" style="fill:white;stroke:black;stroke-width:0.73px;"/>
        </g>
        <g transform="matrix(1,0,0,1,309.783,-230.025)">
            <text x="1850.17px" y="1152.69px" style="font-family:'ArialMT', 'Arial', sans-serif;font-size:37.5px;">A</text>
        </g>
    </g>
    <g transform="matrix(1.23077,0,0,1.23077,-208.007,-140.079)">
        <g transform="matrix(1.1668,0,0,1.1668,-206.395,-531.166)">
            <circle cx="2038.79" cy="1234.5" r="65.797" style="fill:white;stroke:black;stroke-width:0.73px;"/>
        </g>
        <g transform="matrix(1,0,0,1,309.783,-230.025)">
            <text x="1850.17px" y="1152.69px" style="font-family:'ArialMT', 'Arial', sans-serif;font-size:37.5px;">A</text>
        </g>
    </g>
    <g transform="matrix(1,0,0,1,-607.161,-189.875)">
        <g transform="matrix(0.897535,0,0,0.897535,159.539,-198.764)">
            <circle cx="2038.79" cy="1234.5" r="65.797" style="fill:none;stroke:black;stroke-width:1.16px;stroke-linecap:butt;"/>
        </g>
        <g transform="matrix(0.448767,0,0,0.448767,1074.48,355.238)">
            <circle cx="2038.79" cy="1234.5" r="65.797" style="fill:white;stroke:black;stroke-width:2.32px;"/>
        </g>
        <g transform="matrix(1,0,0,1,127.298,-232.167)">
            <text x="1850.17px" y="1152.69px" style="font-family:'ArialMT', 'Arial', sans-serif;font-size:37.5px;">B</text>
        </g>
    </g>
    <g transform="matrix(1,0,0,1,321.812,-24.1933)">
        <g transform="matrix(0.897535,0,0,0.897535,159.539,-198.764)">
            <circle cx="2038.79" cy="1234.5" r="65.797" style="fill:none;stroke:black;stroke-width:1.16px;stroke-linecap:butt;"/>
        </g>
        <g transform="matrix(0.448767,0,0,0.448767,1074.48,355.238)">
            <circle cx="2038.79" cy="1234.5" r="65.797" style="fill:white;stroke:black;stroke-width:2.32px;"/>
        </g>
        <g transform="matrix(1,0,0,1,127.298,-232.167)">
            <text x="1850.17px" y="1152.69px" style="font-family:'ArialMT', 'Arial', sans-serif;font-size:37.5px;">B</text>
        </g>
    </g>
    <g transform="matrix(1,0,0,1,-356.406,60.8797)">
        <g transform="matrix(0.897535,0,0,0.897535,159.539,-198.764)">
            <circle cx="2038.79" cy="1234.5" r="65.797" style="fill:none;stroke:black;stroke-width:1.16px;stroke-linecap:butt;"/>
        </g>
        <g transform="matrix(0.448767,0,0,0.448767,1074.48,355.238)">
            <circle cx="2038.79" cy="1234.5" r="65.797" style="fill:white;stroke:black;stroke-width:2.32px;"/>
        </g>
        <g transform="matrix(1,0,0,1,127.298,-232.167)">
            <text x="1849.14px" y="1152.69px" style="font-family:'ArialMT', 'Arial', sans-serif;font-size:37.5px;">C</text>
        </g>
    </g>
    <g transform="matrix(1,0,0,1,572.567,226.561)">
        <g transform="matrix(0.897535,0,0,0.897535,159.539,-198.764)">
            <circle cx="2038.79" cy="1234.5" r="65.797" style="fill:none;stroke:black;stroke-width:1.16px;stroke-linecap:butt;"/>
        </g>
        <g transform="matrix(0.448767,0,0,0.448767,1074.48,355.238)">
            <circle cx="2038.79" cy="1234.5" r="65.797" style="fill:white;stroke:black;stroke-width:2.32px;"/>
        </g>
        <g transform="matrix(1,0,0,1,127.298,-232.167)">
            <text x="1849.14px" y="1152.69px" style="font-family:'ArialMT', 'Arial', sans-serif;font-size:37.5px;">C</text>
        </g>
    </g>
    <g transform="matrix(1,0,0,1,-546.762,75.423)">
        <path d="M2255.51,549.245L2254.71,550.859C2254.4,551.475 2253.77,551.864 2253.08,551.864C2252.39,551.864 2251.76,551.475 2251.45,550.859L2250.65,549.245L2238.83,549.245L2238.02,550.859C2237.71,551.475 2237.08,551.864 2236.39,551.864C2235.7,551.864 2235.07,551.475 2234.76,550.859L2233.96,549.245L2222.14,549.245L2221.33,550.859C2221.02,551.475 2220.39,551.864 2219.7,551.864C2219.01,551.864 2218.39,551.475 2218.08,550.859L2217.27,549.245L2205.45,549.245L2204.64,550.859C2204.33,551.475 2203.7,551.864 2203.01,551.864C2202.33,551.864 2201.7,551.475 2201.39,550.859L2200.58,549.245L2188.76,549.245L2187.95,550.859C2187.65,551.475 2187.02,551.864 2186.33,551.864C2185.64,551.864 2185.01,551.475 2184.7,550.859L2183.89,549.245L2172.07,549.245L2171.27,550.859C2170.96,551.475 2170.33,551.864 2169.64,551.864C2168.95,551.864 2168.32,551.475 2168.01,550.859L2167.2,549.245L2155.38,549.245L2154.58,550.859C2154.27,551.475 2153.64,551.864 2152.95,551.864C2152.26,551.864 2151.63,551.475 2151.32,550.859L2150.52,549.245L2138.7,549.245L2137.89,550.859C2137.58,551.475 2136.95,551.864 2136.26,551.864C2135.57,551.864 2134.94,551.475 2134.63,550.859L2133.83,549.245L2122.01,549.245L2121.2,550.859C2120.89,551.475 2120.26,551.864 2119.57,551.864C2118.88,551.864 2118.25,551.475 2117.95,550.859L2117.14,549.245L2105.32,549.245L2104.51,550.859C2104.2,551.475 2103.57,551.864 2102.88,551.864C2102.2,551.864 2101.57,551.475 2101.26,550.859L2100.45,549.245L2088.63,549.245L2087.82,550.859C2087.51,551.475 2086.89,551.864 2086.2,551.864C2085.51,551.864 2084.88,551.475 2084.57,550.859L2083.76,549.245L2071.94,549.245L2071.13,550.859C2070.83,551.475 2070.2,551.864 2069.51,551.864C2068.82,551.864 2068.19,551.475 2067.88,550.859L2067.07,549.245L2055.25,549.245L2054.45,550.859C2054.14,551.475 2053.51,551.864 2052.82,551.864C2052.13,551.864 2051.5,551.475 2051.19,550.859L2050.38,549.245L2038.56,549.245L2037.76,550.859C2037.45,551.475 2036.82,551.864 2036.13,551.864C2035.44,551.864 2034.81,551.475 2034.5,550.859L2033.7,549.245L2021.88,549.245L2021.07,550.859C2020.76,551.475 2020.13,551.864 2019.44,551.864C2018.75,551.864 2018.12,551.475 2017.81,550.859L2017.01,549.245L2005.19,549.245L2004.38,550.859C2004.07,551.475 2003.44,551.864 2002.75,551.864C2002.06,551.864 2001.43,551.475 2001.12,550.859L2000.32,549.245L1988.5,549.245L1987.69,550.859C1987.38,551.475 1986.75,551.864 1986.06,551.864C1985.38,551.864 1984.75,551.475 1984.44,550.859L1983.63,549.245L1971.81,549.245L1971,550.859C1970.69,551.475 1970.07,551.864 1969.38,551.864C1968.69,551.864 1968.06,551.475 1967.75,550.859L1966.94,549.245L1955.12,549.245L1954.31,550.859C1954.01,551.475 1953.38,551.864 1952.69,551.864C1952,551.864 1951.37,551.475 1951.06,550.859L1950.25,549.245L1938.43,549.245L1937.63,550.859C1937.32,551.475 1936.69,551.864 1936,551.864C1935.31,551.864 1934.68,551.475 1934.37,550.859L1933.56,549.245L1921.74,549.245L1920.94,550.859C1920.63,551.475 1920,551.864 1919.31,551.864C1918.62,551.864 1917.99,551.475 1917.68,550.859L1916.88,549.245L1905.06,549.245L1904.25,550.859C1903.94,551.475 1903.31,551.864 1902.62,551.864C1901.93,551.864 1901.3,551.475 1900.99,550.859L1900.19,549.245L1888.37,549.245L1887.56,550.859C1887.25,551.475 1886.62,551.864 1885.93,551.864C1885.24,551.864 1884.61,551.475 1884.31,550.859L1883.5,549.245L1871.68,549.245L1870.87,550.859C1870.56,551.475 1869.93,551.864 1869.24,551.864C1868.56,551.864 1867.92,551.475 1867.62,550.859L1866.81,549.245L1854.99,549.245L1854.18,550.859C1853.88,551.475 1853.25,551.864 1852.56,551.864C1851.87,551.864 1851.24,551.475 1850.93,550.859L1850.12,549.245L1836.21,549.245L1836.21,513.812L2308.65,513.812L2308.65,986.253L2273.22,986.253L2273.22,972.577L2271.31,971.621C2270.69,971.313 2270.3,970.683 2270.3,969.993C2270.3,969.304 2270.69,968.674 2271.31,968.366L2273.22,967.41L2273.22,955.889L2271.31,954.932C2270.69,954.624 2270.3,953.994 2270.3,953.305C2270.3,952.616 2270.69,951.986 2271.31,951.678L2273.22,950.721L2273.22,939.2L2271.31,938.244C2270.69,937.935 2270.3,937.305 2270.3,936.616C2270.3,935.927 2270.69,935.297 2271.31,934.989L2273.22,934.033L2273.22,922.511L2271.31,921.555C2270.69,921.247 2270.3,920.617 2270.3,919.928C2270.3,919.239 2270.69,918.609 2271.31,918.3L2273.22,917.344L2273.22,905.823L2271.31,904.867C2270.69,904.558 2270.3,903.928 2270.3,903.239C2270.3,902.55 2270.69,901.92 2271.31,901.612L2273.22,900.656L2273.22,889.134L2271.31,888.178C2270.69,887.87 2270.3,887.24 2270.3,886.551C2270.3,885.862 2270.69,885.232 2271.31,884.923L2273.22,883.967L2273.22,872.446L2271.31,871.489C2270.69,871.181 2270.3,870.551 2270.3,869.862C2270.3,869.173 2270.69,868.543 2271.31,868.235L2273.22,867.278L2273.22,855.757L2271.31,854.801C2270.69,854.493 2270.3,853.863 2270.3,853.174C2270.3,852.484 2270.69,851.854 2271.31,851.546L2273.22,850.59L2273.22,839.069L2271.31,838.112C2270.69,837.804 2270.3,837.174 2270.3,836.485C2270.3,835.796 2270.69,835.166 2271.31,834.858L2273.22,833.901L2273.22,822.38L2271.31,821.424C2270.69,821.116 2270.3,820.486 2270.3,819.796C2270.3,819.107 2270.69,818.477 2271.31,818.169L2273.22,817.213L2273.22,805.692L2271.31,804.735C2270.69,804.427 2270.3,803.797 2270.3,803.108C2270.3,802.419 2270.69,801.789 2271.31,801.481L2273.22,800.524L2273.22,789.003L2271.31,788.047C2270.69,787.738 2270.3,787.108 2270.3,786.419C2270.3,785.73 2270.69,785.1 2271.31,784.792L2273.22,783.836L2273.22,772.314L2271.31,771.358C2270.69,771.05 2270.3,770.42 2270.3,769.731C2270.3,769.042 2270.69,768.412 2271.31,768.103L2273.22,767.147L2273.22,755.626L2271.31,754.67C2270.69,754.361 2270.3,753.731 2270.3,753.042C2270.3,752.353 2270.69,751.723 2271.31,751.415L2273.22,750.459L2273.22,738.937L2271.31,737.981C2270.69,737.673 2270.3,737.043 2270.3,736.354C2270.3,735.665 2270.69,735.035 2271.31,734.726L2273.22,733.77L2273.22,722.249L2271.31,721.292C2270.69,720.984 2270.3,720.354 2270.3,719.665C2270.3,718.976 2270.69,718.346 2271.31,718.038L2273.22,717.081L2273.22,705.56L2271.31,704.604C2270.69,704.296 2270.3,703.666 2270.3,702.977C2270.3,702.287 2270.69,701.657 2271.31,701.349L2273.22,700.393L2273.22,688.872L2271.31,687.915C2270.69,687.607 2270.3,686.977 2270.3,686.288C2270.3,685.599 2270.69,684.969 2271.31,684.661L2273.22,683.704L2273.22,672.183L2271.31,671.227C2270.69,670.919 2270.3,670.289 2270.3,669.599C2270.3,668.91 2270.69,668.28 2271.31,667.972L2273.22,667.016L2273.22,655.495L2271.31,654.538C2270.69,654.23 2270.3,653.6 2270.3,652.911C2270.3,652.222 2270.69,651.592 2271.31,651.284L2273.22,650.327L2273.22,638.806L2271.31,637.85C2270.69,637.541 2270.3,636.911 2270.3,636.222C2270.3,635.533 2270.69,634.903 2271.31,634.595L2273.22,633.639L2273.22,622.117L2271.31,621.161C2270.69,620.853 2270.3,620.223 2270.3,619.534C2270.3,618.845 2270.69,618.215 2271.31,617.906L2273.22,616.95L2273.22,605.429L2271.31,604.473C2270.69,604.164 2270.3,603.534 2270.3,602.845C2270.3,602.156 2270.69,601.526 2271.31,601.218L2273.22,600.262L2273.22,588.74L2271.31,587.784C2270.69,587.476 2270.3,586.846 2270.3,586.157C2270.3,585.468 2270.69,584.838 2271.31,584.529L2273.22,583.573L2273.22,572.052L2271.31,571.095C2270.69,570.787 2270.3,570.157 2270.3,569.468C2270.3,568.779 2270.69,568.149 2271.31,567.841L2273.22,566.884L2273.22,549.245L2255.51,549.245Z" style="fill:none;stroke:black;stroke-width:1.04px;"/>
    </g>
    <g transform="matrix(1,0,0,1,382.211,241.105)">
        <path d="M2255.51,549.245L2254.71,550.859C2254.4,551.475 2253.77,551.864 2253.08,551.864C2252.39,551.864 2251.76,551.475 2251.45,550.859L2250.65,549.245L2238.83,549.245L2238.02,550.859C2237.71,551.475 2237.08,551.864 2236.39,551.864C2235.7,551.864 2235.07,551.475 2234.76,550.859L2233.96,549.245L2222.14,549.245L2221.33,550.859C2221.02,551.475 2220.39,551.864 2219.7,551.864C2219.01,551.864 2218.39,551.475 2218.08,550.859L2217.27,549.245L2205.45,549.245L2204.64,550.859C2204.33,551.475 2203.7,551.864 2203.01,551.864C2202.33,551.864 2201.7,551.475 2201.39,550.859L2200.58,549.245L2188.76,549.245L2187.95,550.859C2187.65,551.475 2187.02,551.864 2186.33,551.864C2185.64,551.864 2185.01,551.475 2184.7,550.859L2183.89,549.245L2172.07,549.245L2171.27,550.859C2170.96,551.475 2170.33,551.864 2169.64,551.864C2168.95,551.864 2168.32,551.475 2168.01,550.859L2167.2,549.245L2155.38,549.245L2154.58,550.859C2154.27,551.475 2153.64,551.864 2152.95,551.864C2152.26,551.864 2151.63,551.475 2151.32,550.859L2150.52,549.245L2138.7,549.245L2137.89,550.859C2137.58,551.475 2136.95,551.864 2136.26,551.864C2135.57,551.864 2134.94,551.475 2134.63,550.859L2133.83,549.245L2122.01,549.245L2121.2,550.859C2120.89,551.475 2120.26,551.864 2119.57,551.864C2118.88,551.864 2118.25,551.475 2117.95,550.859L2117.14,549.245L2105.32,549.245L2104.51,550.859C2104.2,551.475 2103.57,551.864 2102.88,551.864C2102.2,551.864 2101.57,551.475 2101.26,550.859L2100.45,549.245L2088.63,549.245L2087.82,550.859C2087.51,551.475 2086.89,551.864 2086.2,551.864C2085.51,551.864 2084.88,551.475 2084.57,550.859L2083.76,549.245L2071.94,549.245L2071.13,550.859C2070.83,551.475 2070.2,551.864 2069.51,551.864C2068.82,551.864 2068.19,551.475 2067.88,550.859L2067.07,549.245L2055.25,549.245L2054.45,550.859C2054.14,551.475 2053.51,551.864 2052.82,551.864C2052.13,551.864 2051.5,551.475 2051.19,550.859L2050.38,549.245L2038.56,549.245L2037.76,550.859C2037.45,551.475 2036.82,551.864 2036.13,551.864C2035.44,551.864 2034.81,551.475 2034.5,550.859L2033.7,549.245L2021.88,549.245L2021.07,550.859C2020.76,551.475 2020.13,551.864 2019.44,551.864C2018.75,551.864 2018.12,551.475 2017.81,550.859L2017.01,549.245L2005.19,549.245L2004.38,550.859C2004.07,551.475 2003.44,551.864 2002.75,551.864C2002.06,551.864 2001.43,551.475 2001.12,550.859L2000.32,549.245L1988.5,549.245L1987.69,550.859C1987.38,551.475 1986.75,551.864 1986.06,551.864C1985.38,551.864 1984.75,551.475 1984.44,550.859L1983.63,549.245L1971.81,549.245L1971,550.859C1970.69,551.475 1970.07,551.864 1969.38,551.864C1968.69,551.864 1968.06,551.475 1967.75,550.859L1966.94,549.245L1955.12,549.245L1954.31,550.859C1954.01,551.475 1953.38,551.864 1952.69,551.864C1952,551.864 1951.37,551.475 1951.06,550.859L1950.25,549.245L1938.43,549.245L1937.63,550.859C1937.32,551.475 1936.69,551.864 1936,551.864C1935.31,551.864 1934.68,551.475 1934.37,550.859L1933.56,549.245L1921.74,549.245L1920.94,550.859C1920.63,551.475 1920,551.864 1919.31,551.864C1918.62,551.864 1917.99,551.475 1917.68,550.859L1916.88,549.245L1905.06,549.245L1904.25,550.859C1903.94,551.475 1903.31,551.864 1902.62,551.864C1901.93,551.864 1901.3,551.475 1900.99,550.859L1900.19,549.245L1888.37,549.245L1887.56,550.859C1887.25,551.475 1886.62,551.864 1885.93,551.864C1885.24,551.864 1884.61,551.475 1884.31,550.859L1883.5,549.245L1871.68,549.245L1870.87,550.859C1870.56,551.475 1869.93,551.864 1869.24,551.864C1868.56,551.864 1867.92,551.475 1867.62,550.859L1866.81,549.245L1854.99,549.245L1854.18,550.859C1853.88,551.475 1853.25,551.864 1852.56,551.864C1851.87,551.864 1851.24,551.475 1850.93,550.859L1850.12,549.245L1836.21,549.245L1836.21,513.812L2308.65,513.812L2308.65,986.253L2273.22,986.253L2273.22,972.577L2271.31,971.621C2270.69,971.313 2270.3,970.683 2270.3,969.993C2270.3,969.304 2270.69,968.674 2271.31,968.366L2273.22,967.41L2273.22,955.889L2271.31,954.932C2270.69,954.624 2270.3,953.994 2270.3,953.305C2270.3,952.616 2270.69,951.986 2271.31,951.678L2273.22,950.721L2273.22,939.2L2271.31,938.244C2270.69,937.935 2270.3,937.305 2270.3,936.616C2270.3,935.927 2270.69,935.297 2271.31,934.989L2273.22,934.033L2273.22,922.511L2271.31,921.555C2270.69,921.247 2270.3,920.617 2270.3,919.928C2270.3,919.239 2270.69,918.609 2271.31,918.3L2273.22,917.344L2273.22,905.823L2271.31,904.867C2270.69,904.558 2270.3,903.928 2270.3,903.239C2270.3,902.55 2270.69,901.92 2271.31,901.612L2273.22,900.656L2273.22,889.134L2271.31,888.178C2270.69,887.87 2270.3,887.24 2270.3,886.551C2270.3,885.862 2270.69,885.232 2271.31,884.923L2273.22,883.967L2273.22,872.446L2271.31,871.489C2270.69,871.181 2270.3,870.551 2270.3,869.862C2270.3,869.173 2270.69,868.543 2271.31,868.235L2273.22,867.278L2273.22,855.757L2271.31,854.801C2270.69,854.493 2270.3,853.863 2270.3,853.174C2270.3,852.484 2270.69,851.854 2271.31,851.546L2273.22,850.59L2273.22,839.069L2271.31,838.112C2270.69,837.804 2270.3,837.174 2270.3,836.485C2270.3,835.796 2270.69,835.166 2271.31,834.858L2273.22,833.901L2273.22,822.38L2271.31,821.424C2270.69,821.116 2270.3,820.486 2270.3,819.796C2270.3,819.107 2270.69,818.477 2271.31,818.169L2273.22,817.213L2273.22,805.692L2271.31,804.735C2270.69,804.427 2270.3,803.797 2270.3,803.108C2270.3,802.419 2270.69,801.789 2271.31,801.481L2273.22,800.524L2273.22,789.003L2271.31,788.047C2270.69,787.738 2270.3,787.108 2270.3,786.419C2270.3,785.73 2270.69,785.1 2271.31,784.792L2273.22,783.836L2273.22,772.314L2271.31,771.358C2270.69,771.05 2270.3,770.42 2270.3,769.731C2270.3,769.042 2270.69,768.412 2271.31,768.103L2273.22,767.147L2273.22,755.626L2271.31,754.67C2270.69,754.361 2270.3,753.731 2270.3,753.042C2270.3,752.353 2270.69,751.723 2271.31,751.415L2273.22,750.459L2273.22,738.937L2271.31,737.981C2270.69,737.673 2270.3,737.043 2270.3,736.354C2270.3,735.665 2270.69,735.035 2271.31,734.726L2273.22,733.77L2273.22,722.249L2271.31,721.292C2270.69,720.984 2270.3,720.354 2270.3,719.665C2270.3,718.976 2270.69,718.346 2271.31,718.038L2273.22,717.081L2273.22,705.56L2271.31,704.604C2270.69,704.296 2270.3,703.666 2270.3,702.977C2270.3,702.287 2270.69,701.657 2271.31,701.349L2273.22,700.393L2273.22,688.872L2271.31,687.915C2270.69,687.607 2270.3,686.977 2270.3,686.288C2270.3,685.599 2270.69,684.969 2271.31,684.661L2273.22,683.704L2273.22,672.183L2271.31,671.227C2270.69,670.919 2270.3,670.289 2270.3,669.599C2270.3,668.91 2270.69,668.28 2271.31,667.972L2273.22,667.016L2273.22,655.495L2271.31,654.538C2270.69,654.23 2270.3,653.6 2270.3,652.911C2270.3,652.222 2270.69,651.592 2271.31,651.284L2273.22,650.327L2273.22,638.806L2271.31,637.85C2270.69,637.541 2270.3,636.911 2270.3,636.222C2270.3,635.533 2270.69,634.903 2271.31,634.595L2273.22,633.639L2273.22,622.117L2271.31,621.161C2270.69,620.853 2270.3,620.223 2270.3,619.534C2270.3,618.845 2270.69,618.215 2271.31,617.906L2273.22,616.95L2273.22,605.429L2271.31,604.473C2270.69,604.164 2270.3,603.534 2270.3,602.845C2270.3,602.156 2270.69,601.526 2271.31,601.218L2273.22,600.262L2273.22,588.74L2271.31,587.784C2270.69,587.476 2270.3,586.846 2270.3,586.157C2270.3,585.468 2270.69,584.838 2271.31,584.529L2273.22,583.573L2273.22,572.052L2271.31,571.095C2270.69,570.787 2270.3,570.157 2270.3,569.468C2270.3,568.779 2270.69,568.149 2271.31,567.841L2273.22,566.884L2273.22,549.245L2255.51,549.245Z" style="fill:none;stroke:black;stroke-width:1.04px;"/>
    </g>
    <g transform="matrix(1.71933,0,0,3.80888,-1950.01,-2351.66)">
        <path d="M2159.01,660.04L1947.87,660.04C1912.71,660.04 1884.2,672.908 1884.2,688.782C1884.2,702.453 1884.2,715.856 1884.2,715.856L2159.01,715.856L2159.01,660.04Z" style="fill:none;stroke:black;stroke-width:0.35px;stroke-linecap:butt;"/>
    </g>
    <g transform="matrix(1.71933,0,0,3.80888,-1021.98,-2032.38)">
        <path d="M2159.01,660.04L1947.87,660.04C1912.71,660.04 1884.2,672.908 1884.2,688.782C1884.2,702.453 1884.2,715.856 1884.2,715.856L2159.01,715.856L2159.01,660.04Z" style="fill:none;stroke:black;stroke-width:0.35px;stroke-linecap:butt;"/>
    </g>
    <g transform="matrix(-1.71933,0,0,3.80888,5574.25,-2351.66)">
        <path d="M2159.01,660.04L1947.87,660.04C1912.71,660.04 1884.2,672.908 1884.2,688.782C1884.2,702.453 1884.2,715.856 1884.2,715.856L2159.01,715.856L2159.01,660.04Z" style="fill:none;stroke:black;stroke-width:0.35px;stroke-linecap:butt;"/>
    </g>
    <g transform="matrix(1,0,0,1.19789,-507.604,-479.105)">
        <path d="M2405.73,683.239L2842.29,683.223L2842.29,712.707L2369.8,712.707L2369.8,677.274L2370.3,677.274L2370.3,535.23L2405.73,535.23L2405.73,683.239Z" style="fill:none;stroke:black;stroke-width:0.94px;stroke-linecap:butt;"/>
    </g>
    <g transform="matrix(1,0,0,1,-491.9,-582.43)">
        <text x="1850.17px" y="1152.69px" style="font-family:'ArialMT', 'Arial', sans-serif;font-size:16.667px;">10mm</text>
    </g>
    <g transform="matrix(1,0,0,1,-240.255,-12.392)">
        <text x="1850.17px" y="1152.69px" style="font-family:'ArialMT', 'Arial', sans-serif;font-size:16.667px;">10mm</text>
    </g>
    <g transform="matrix(1,0,0,1,-240.255,14.2023)">
        <text x="1867.31px" y="1152.69px" style="font-family:'Arial-BoldMT', 'Arial', sans-serif;font-weight:700;font-size:16.667px;">C</text>
    </g>
    <g transform="matrix(6.12323e-17,-1,1,6.12323e-17,652.189,2689.77)">
        <text x="1850.17px" y="1152.69px" style="font-family:'ArialMT', 'Arial', sans-serif;font-size:16.667px;">16mm</text>
    </g>
    <g transform="matrix(6.12323e-17,-1,1,6.12323e-17,652.189,2145.61)">
        <text x="1850.17px" y="1152.69px" style="font-family:'ArialMT', 'Arial', sans-serif;font-size:16.667px;">18mm</text>
    </g>
    <g transform="matrix(6.12323e-17,-1,1,6.12323e-17,633.701,2689.77)">
        <text x="1867.31px" y="1152.69px" style="font-family:'Arial-BoldMT', 'Arial', sans-serif;font-weight:700;font-size:16.667px;">A</text>
    </g>
    <g transform="matrix(6.12323e-17,-1,1,6.12323e-17,695.706,2625.48)">
        <text x="1850.17px" y="1152.69px" style="font-family:'ArialMT', 'Arial', sans-serif;font-size:16.667px;">24mm</text>
    </g>
    <g transform="matrix(6.12323e-17,-1,1,6.12323e-17,1229.83,2231.16)">
        <text x="1854.81px" y="1152.69px" style="font-family:'ArialMT', 'Arial', sans-serif;font-size:16.667px;">3mm</text>
    </g>
    <g transform="matrix(1,0,0,1,-491.9,-620.521)">
        <text x="1854.81px" y="1152.69px" style="font-family:'ArialMT', 'Arial', sans-serif;font-size:16.667px;">5mm</text>
    </g>
    <g transform="matrix(1,0,0,1,-491.9,-655.487)">
        <text x="1867.31px" y="1152.69px" style="font-family:'Arial-BoldMT', 'Arial', sans-serif;font-weight:700;font-size:16.667px;">B</text>
    </g>
    <g transform="matrix(1,0,0,1,-240.255,-50.4839)">
        <text x="1854.81px" y="1152.69px" style="font-family:'ArialMT', 'Arial', sans-serif;font-size:16.667px;">5mm</text>
    </g>
    <g transform="matrix(1,0,0,1,-127.961,-7.91706)">
        <text x="1854.81px" y="1152.69px" style="font-family:'ArialMT', 'Arial', sans-serif;font-size:16.667px;">3mm</text>
    </g>
    <g transform="matrix(0.322803,0,0,0.314667,699.627,304.374)">
        <path d="M1934.03,634.475L1934.03,862.84" style="fill:none;stroke:black;stroke-width:3.27px;stroke-linecap:butt;stroke-dasharray:3.27,6.54,3.27,0;"/>
    </g>
    <g transform="matrix(0.322803,0,0,0.314667,951.273,874.411)">
        <path d="M1934.03,634.475L1934.03,862.84" style="fill:none;stroke:black;stroke-width:3.27px;stroke-linecap:butt;stroke-dasharray:3.27,6.54,3.27,0;"/>
    </g>
    <g transform="matrix(0.322803,0,0,0.200422,728.597,376.86)">
        <path d="M1934.03,634.475L1934.03,862.84" style="fill:none;stroke:black;stroke-width:3.88px;stroke-linecap:butt;stroke-dasharray:3.88,7.75,3.88,0;"/>
    </g>
    <g transform="matrix(0.322803,0,0,0.200422,980.242,946.897)">
        <path d="M1934.03,634.475L1934.03,862.84" style="fill:none;stroke:black;stroke-width:3.88px;stroke-linecap:butt;stroke-dasharray:3.88,7.75,3.88,0;"/>
    </g>
    <g transform="matrix(0.322803,0,0,0.200422,1101.85,946.897)">
        <path d="M1934.03,634.475L1934.03,862.84" style="fill:none;stroke:black;stroke-width:3.88px;stroke-linecap:butt;stroke-dasharray:3.88,7.75,3.88,0;"/>
    </g>
    <g transform="matrix(0.322803,0,0,0.321509,816.625,298.425)">
        <path d="M1934.03,634.475L1934.03,862.84" style="fill:none;stroke:black;stroke-width:3.23px;stroke-linecap:butt;stroke-dasharray:3.23,6.47,3.23,0;"/>
    </g>
    <g transform="matrix(0.322803,0,0,0.321509,1068.27,868.463)">
        <path d="M1934.03,634.475L1934.03,862.84" style="fill:none;stroke:black;stroke-width:3.23px;stroke-linecap:butt;stroke-dasharray:3.23,6.47,3.23,0;"/>
    </g>
    <g transform="matrix(0.322803,0,0,0.200422,787.332,376.86)">
        <path d="M1934.03,634.475L1934.03,862.84" style="fill:none;stroke:black;stroke-width:3.88px;stroke-linecap:butt;stroke-dasharray:3.88,7.75,3.88,0;"/>
    </g>
    <g transform="matrix(0.322803,0,0,0.200422,1038.98,946.897)">
        <path d="M1934.03,634.475L1934.03,862.84" style="fill:none;stroke:black;stroke-width:3.88px;stroke-linecap:butt;stroke-dasharray:3.88,7.75,3.88,0;"/>
    </g>
    <g transform="matrix(0.322803,0,0,0.200422,1137.95,946.897)">
        <path d="M1934.03,634.475L1934.03,862.84" style="fill:none;stroke:black;stroke-width:3.88px;stroke-linecap:butt;stroke-dasharray:3.88,7.75,3.88,0;"/>
    </g>
    <g transform="matrix(0.498285,0,0,1,723.703,-155.035)">
        <path d="M2119.69,879.1L2195.41,879.1" style="fill:none;stroke:black;stroke-width:1.32px;stroke-linecap:butt;stroke-dasharray:1.32,2.64,1.32,0;"/>
    </g>
    <g transform="matrix(0.498285,0,0,1,724.294,-503.467)">
        <path d="M2119.69,879.1L2195.41,879.1" style="fill:none;stroke:black;stroke-width:1.32px;stroke-linecap:butt;stroke-dasharray:1.32,2.64,1.32,0;"/>
    </g>
    <g transform="matrix(0.498285,0,0,1,724.294,-716.428)">
        <path d="M2119.69,879.1L2195.41,879.1" style="fill:none;stroke:black;stroke-width:1.32px;stroke-linecap:butt;stroke-dasharray:1.32,2.64,1.32,0;"/>
    </g>
    <g transform="matrix(0.257404,0,0,1,1798.85,-539.427)">
        <path d="M2119.69,879.1L2195.41,879.1" style="fill:none;stroke:black;stroke-width:1.43px;stroke-linecap:butt;stroke-dasharray:1.43,2.85,1.43,0;"/>
    </g>
    <g transform="matrix(0.257404,0,0,1,1798.85,-504.492)">
        <path d="M2119.69,879.1L2195.41,879.1" style="fill:none;stroke:black;stroke-width:1.43px;stroke-linecap:butt;stroke-dasharray:1.43,2.85,1.43,0;"/>
    </g>
    <g transform="matrix(0.56052,0,0,1,632.348,-251.491)">
        <path d="M2119.69,879.1L2195.41,879.1" style="fill:none;stroke:black;stroke-width:1.29px;stroke-linecap:butt;stroke-dasharray:1.29,2.57,1.29,0;"/>
    </g>
    <g transform="matrix(1.08844,0,0,1,-526.654,27.7151)">
        <path d="M2119.69,879.1L2195.41,879.1" style="fill:none;stroke:black;stroke-width:1px;stroke-linecap:butt;stroke-dasharray:1,1.99,1,0;"/>
    </g>
    <g id="charger" transform="matrix(1,0,0,1,-592.762,-662.582)">
        <g transform="matrix(1.27169,-3.46945e-18,6.93889e-18,2.30481,-187.947,-1004.76)">
            <path d="M1527.67,839.111C1527.67,799.841 1469.88,767.958 1398.71,767.958L820.733,767.958C749.56,767.958 691.776,799.841 691.776,839.111L691.776,1183.63C691.776,1222.9 749.56,1254.79 820.733,1254.79L1398.71,1254.79C1469.88,1254.79 1527.67,1222.9 1527.67,1183.63L1527.67,839.111Z" style="fill:rgb(235,235,235);fill-opacity:0.5;stroke:black;stroke-width:0.56px;"/>
        </g>
        <g transform="matrix(0.837847,0,0,1,220.512,155.524)">
            <rect x="1112.25" y="609.714" width="169.162" height="47.923" style="fill:rgb(235,235,235);fill-opacity:0.5;stroke:black;stroke-width:1.13px;"/>
        </g>
    </g>
    <g transform="matrix(0.217376,0,0,3.86512,1356.72,-989.972)">
        <rect x="2491.57" y="299.96" width="9.779" height="41.982" style="fill:none;stroke:black;stroke-width:0.38px;stroke-linecap:butt;"/>
    </g>
    <g transform="matrix(6.12323e-17,1,-1,6.12323e-17,3417.32,103.361)">
        <g transform="matrix(6.18912e-17,-1.01076,0.902081,5.52365e-17,4.93436,2534.48)">
            <rect x="1128.73" y="716.837" width="192.807" height="39.279" style="fill:none;stroke:black;stroke-width:1.09px;stroke-linecap:butt;"/>
        </g>
        <g transform="matrix(8.03372e-17,-1.31201,0.902081,5.52365e-17,4.93436,2932.59)">
            <rect x="1128.73" y="716.837" width="192.807" height="39.279" style="fill:none;stroke:black;stroke-width:0.93px;stroke-linecap:butt;"/>
        </g>
        <path d="M652.048,1422.21L687.133,1422.21" style="fill:none;stroke:black;stroke-width:1.04px;stroke-linecap:butt;"/>
    </g>
    <g transform="matrix(1,-2.13935e-17,-2.13935e-17,0.650617,-1209.24,67.485)">
        <path d="M3427.84,928.356L3260.23,929.097L3233.64,956.696L3206.8,928.255L3175.32,963.622L3427.64,963.119L3427.84,928.356Z" style="fill:none;stroke:black;stroke-width:1.23px;stroke-linecap:butt;"/>
    </g>
</svg>
